<mxfile host="app.diagrams.net" modified="2021-03-15T13:09:32.224Z" agent="5.0 (Windows NT 10.0; Win64; x64) AppleWebKit/537.36 (KHTML, like Gecko) Chrome/89.0.4389.82 Safari/537.36" etag="JwXlVqjqe0f3XIZsoXVQ" version="14.4.3" type="github">
  <diagram id="wKTDtwubBM4ZaoyLXUtE" name="Page-1">
    <mxGraphModel dx="1038" dy="1717" grid="1" gridSize="10" guides="1" tooltips="1" connect="1" arrows="1" fold="1" page="1" pageScale="1" pageWidth="827" pageHeight="1169" math="0" shadow="0">
      <root>
        <mxCell id="0" />
        <mxCell id="1" parent="0" />
        <mxCell id="kF__j294HLQNLXvyXOyZ-1" value="Story" style="swimlane;html=1;childLayout=stackLayout;startSize=20;rounded=0;shadow=0;comic=0;labelBackgroundColor=none;strokeWidth=1;fontFamily=Verdana;fontSize=12;align=center;" vertex="1" parent="1">
          <mxGeometry x="19" y="-1080" width="790" height="1120" as="geometry" />
        </mxCell>
        <mxCell id="kF__j294HLQNLXvyXOyZ-2" value="Lane 1" style="swimlane;html=1;startSize=20;" vertex="1" parent="kF__j294HLQNLXvyXOyZ-1">
          <mxGeometry y="20" width="250" height="1100" as="geometry" />
        </mxCell>
        <mxCell id="kF__j294HLQNLXvyXOyZ-3" value="EP00-01_0" style="rounded=1;whiteSpace=wrap;html=1;shadow=0;comic=0;labelBackgroundColor=none;strokeWidth=1;fontFamily=Verdana;fontSize=12;align=center;arcSize=50;" vertex="1" parent="kF__j294HLQNLXvyXOyZ-2">
          <mxGeometry x="30" y="100" width="100" height="30" as="geometry" />
        </mxCell>
        <mxCell id="kF__j294HLQNLXvyXOyZ-4" style="edgeStyle=none;rounded=0;html=1;dashed=1;labelBackgroundColor=none;startArrow=none;startFill=0;startSize=5;endArrow=oval;endFill=0;endSize=5;jettySize=auto;orthogonalLoop=1;strokeWidth=1;fontFamily=Verdana;fontSize=12;entryX=0.5;entryY=1;entryDx=0;entryDy=0;exitX=0.5;exitY=0;exitDx=0;exitDy=0;exitPerimeter=0;" edge="1" parent="kF__j294HLQNLXvyXOyZ-2" source="kF__j294HLQNLXvyXOyZ-6" target="kF__j294HLQNLXvyXOyZ-3">
          <mxGeometry relative="1" as="geometry">
            <mxPoint x="150" y="257.8780487804878" as="sourcePoint" />
            <mxPoint x="112.9545454545455" y="238" as="targetPoint" />
          </mxGeometry>
        </mxCell>
        <mxCell id="kF__j294HLQNLXvyXOyZ-5" style="edgeStyle=orthogonalEdgeStyle;rounded=0;html=1;labelBackgroundColor=none;startArrow=none;startFill=0;startSize=5;endArrow=classicThin;endFill=1;endSize=5;jettySize=auto;orthogonalLoop=1;strokeWidth=1;fontFamily=Verdana;fontSize=12" edge="1" parent="kF__j294HLQNLXvyXOyZ-2" target="kF__j294HLQNLXvyXOyZ-3">
          <mxGeometry relative="1" as="geometry">
            <mxPoint x="80" y="70" as="sourcePoint" />
          </mxGeometry>
        </mxCell>
        <mxCell id="kF__j294HLQNLXvyXOyZ-6" value="EP00-01" style="shape=note;whiteSpace=wrap;html=1;rounded=0;shadow=0;comic=0;labelBackgroundColor=none;strokeWidth=1;fontFamily=Verdana;fontSize=12;align=center;size=20;fillColor=#dae8fc;strokeColor=#6c8ebf;" vertex="1" parent="kF__j294HLQNLXvyXOyZ-2">
          <mxGeometry x="42.5" y="170" width="75" height="44" as="geometry" />
        </mxCell>
        <mxCell id="kF__j294HLQNLXvyXOyZ-7" value="" style="shape=umlActor;verticalLabelPosition=bottom;verticalAlign=top;html=1;outlineConnect=0;" vertex="1" parent="kF__j294HLQNLXvyXOyZ-2">
          <mxGeometry x="65" y="30" width="30" height="60" as="geometry" />
        </mxCell>
        <mxCell id="kF__j294HLQNLXvyXOyZ-8" style="edgeStyle=none;rounded=0;orthogonalLoop=1;jettySize=auto;html=1;dashed=1;startArrow=oval;startFill=0;" edge="1" parent="kF__j294HLQNLXvyXOyZ-2" source="kF__j294HLQNLXvyXOyZ-9" target="kF__j294HLQNLXvyXOyZ-3">
          <mxGeometry relative="1" as="geometry" />
        </mxCell>
        <mxCell id="kF__j294HLQNLXvyXOyZ-9" value="出生点" style="shape=card;whiteSpace=wrap;html=1;size=20;fillColor=#d5e8d4;strokeColor=#82b366;" vertex="1" parent="kF__j294HLQNLXvyXOyZ-2">
          <mxGeometry x="140" y="160" width="80" height="40" as="geometry" />
        </mxCell>
        <mxCell id="kF__j294HLQNLXvyXOyZ-10" style="edgeStyle=none;rounded=0;orthogonalLoop=1;jettySize=auto;html=1;entryX=1;entryY=0.25;entryDx=0;entryDy=0;startArrow=oval;startFill=0;" edge="1" parent="kF__j294HLQNLXvyXOyZ-2" source="kF__j294HLQNLXvyXOyZ-11" target="kF__j294HLQNLXvyXOyZ-3">
          <mxGeometry relative="1" as="geometry" />
        </mxCell>
        <mxCell id="kF__j294HLQNLXvyXOyZ-11" value="序言&lt;br&gt;回忆" style="shape=parallelogram;perimeter=parallelogramPerimeter;whiteSpace=wrap;html=1;fixedSize=1;" vertex="1" parent="kF__j294HLQNLXvyXOyZ-2">
          <mxGeometry x="120" y="40" width="120" height="40" as="geometry" />
        </mxCell>
        <mxCell id="kF__j294HLQNLXvyXOyZ-12" value="Lane 2" style="swimlane;html=1;startSize=20;" vertex="1" parent="kF__j294HLQNLXvyXOyZ-1">
          <mxGeometry x="250" y="20" width="290" height="1100" as="geometry" />
        </mxCell>
        <mxCell id="kF__j294HLQNLXvyXOyZ-13" value="" style="whiteSpace=wrap;html=1;rounded=0;shadow=0;comic=0;labelBackgroundColor=none;strokeWidth=1;fillColor=#000000;fontFamily=Verdana;fontSize=12;align=center;rotation=0;" vertex="1" parent="kF__j294HLQNLXvyXOyZ-12">
          <mxGeometry y="160" width="290" height="10" as="geometry" />
        </mxCell>
        <mxCell id="kF__j294HLQNLXvyXOyZ-14" value="EP00-02_0" style="rounded=1;whiteSpace=wrap;html=1;shadow=0;comic=0;labelBackgroundColor=none;strokeWidth=1;fontFamily=Verdana;fontSize=12;align=center;arcSize=50;" vertex="1" parent="kF__j294HLQNLXvyXOyZ-12">
          <mxGeometry x="91.88" y="200" width="100" height="30" as="geometry" />
        </mxCell>
        <mxCell id="kF__j294HLQNLXvyXOyZ-15" style="edgeStyle=orthogonalEdgeStyle;rounded=0;html=1;exitX=0.25;exitY=1;entryX=0.5;entryY=0;labelBackgroundColor=none;startArrow=none;startFill=0;startSize=5;endArrow=classicThin;endFill=1;endSize=5;jettySize=auto;orthogonalLoop=1;strokeWidth=1;fontFamily=Verdana;fontSize=12" edge="1" parent="kF__j294HLQNLXvyXOyZ-12" source="kF__j294HLQNLXvyXOyZ-13" target="kF__j294HLQNLXvyXOyZ-14">
          <mxGeometry relative="1" as="geometry">
            <Array as="points">
              <mxPoint x="142" y="170" />
            </Array>
          </mxGeometry>
        </mxCell>
        <mxCell id="kF__j294HLQNLXvyXOyZ-17" style="edgeStyle=none;rounded=0;html=1;labelBackgroundColor=none;startArrow=none;startFill=0;startSize=5;endArrow=oval;endFill=0;endSize=5;jettySize=auto;orthogonalLoop=1;strokeWidth=1;fontFamily=Verdana;fontSize=12;dashed=1;" edge="1" parent="kF__j294HLQNLXvyXOyZ-12" target="kF__j294HLQNLXvyXOyZ-14">
          <mxGeometry relative="1" as="geometry">
            <mxPoint x="85.005" y="254" as="sourcePoint" />
          </mxGeometry>
        </mxCell>
        <mxCell id="kF__j294HLQNLXvyXOyZ-20" value="EP00-02" style="shape=note;whiteSpace=wrap;html=1;rounded=0;shadow=0;comic=0;labelBackgroundColor=none;strokeWidth=1;fontFamily=Verdana;fontSize=12;align=center;size=20;fillColor=#dae8fc;strokeColor=#6c8ebf;" vertex="1" parent="kF__j294HLQNLXvyXOyZ-12">
          <mxGeometry x="6.880000000000003" y="240" width="85" height="42" as="geometry" />
        </mxCell>
        <mxCell id="kF__j294HLQNLXvyXOyZ-25" style="edgeStyle=none;rounded=0;orthogonalLoop=1;jettySize=auto;html=1;dashed=1;startArrow=oval;startFill=0;exitX=0.419;exitY=-0.032;exitDx=0;exitDy=0;exitPerimeter=0;" edge="1" parent="kF__j294HLQNLXvyXOyZ-12" source="kF__j294HLQNLXvyXOyZ-47" target="kF__j294HLQNLXvyXOyZ-14">
          <mxGeometry relative="1" as="geometry">
            <mxPoint x="210" y="231.51474010861136" as="sourcePoint" />
          </mxGeometry>
        </mxCell>
        <mxCell id="kF__j294HLQNLXvyXOyZ-34" value="" style="whiteSpace=wrap;html=1;rounded=0;shadow=0;comic=0;labelBackgroundColor=none;strokeWidth=1;fillColor=#000000;fontFamily=Verdana;fontSize=12;align=center;rotation=0;" vertex="1" parent="kF__j294HLQNLXvyXOyZ-12">
          <mxGeometry y="360" width="290" height="10" as="geometry" />
        </mxCell>
        <mxCell id="kF__j294HLQNLXvyXOyZ-47" value="医生房间CG场景" style="rounded=0;whiteSpace=wrap;html=1;shadow=0;comic=0;labelBackgroundColor=none;strokeWidth=1;fontFamily=Verdana;fontSize=12;align=center;arcSize=50;fillColor=#ffe6cc;strokeColor=#d79b00;" vertex="1" parent="kF__j294HLQNLXvyXOyZ-12">
          <mxGeometry x="171" y="250" width="96.5" height="50" as="geometry" />
        </mxCell>
        <mxCell id="kF__j294HLQNLXvyXOyZ-35" value="Lane 3" style="swimlane;html=1;startSize=20;" vertex="1" parent="kF__j294HLQNLXvyXOyZ-1">
          <mxGeometry x="540" y="20" width="249.16999999999996" height="1100" as="geometry" />
        </mxCell>
        <mxCell id="kF__j294HLQNLXvyXOyZ-36" style="rounded=0;html=1;labelBackgroundColor=none;startArrow=none;startFill=0;startSize=5;endArrow=classicThin;endFill=1;endSize=5;jettySize=auto;orthogonalLoop=1;strokeWidth=1;fontFamily=Verdana;fontSize=12" edge="1" parent="kF__j294HLQNLXvyXOyZ-35">
          <mxGeometry relative="1" as="geometry">
            <mxPoint x="61.25" y="268" as="targetPoint" />
          </mxGeometry>
        </mxCell>
        <mxCell id="kF__j294HLQNLXvyXOyZ-37" style="edgeStyle=none;rounded=0;html=1;labelBackgroundColor=none;startArrow=none;startFill=0;startSize=5;endArrow=classicThin;endFill=1;endSize=5;jettySize=auto;orthogonalLoop=1;strokeWidth=1;fontFamily=Verdana;fontSize=12" edge="1" parent="kF__j294HLQNLXvyXOyZ-35">
          <mxGeometry relative="1" as="geometry">
            <mxPoint x="35" y="367.2222222222222" as="targetPoint" />
          </mxGeometry>
        </mxCell>
        <mxCell id="kF__j294HLQNLXvyXOyZ-38" style="edgeStyle=none;rounded=0;html=1;labelBackgroundColor=none;startArrow=none;startFill=0;startSize=5;endArrow=classicThin;endFill=1;endSize=5;jettySize=auto;orthogonalLoop=1;strokeWidth=1;fontFamily=Verdana;fontSize=12" edge="1" parent="kF__j294HLQNLXvyXOyZ-35">
          <mxGeometry relative="1" as="geometry">
            <mxPoint x="70.5645161290322" y="298" as="sourcePoint" />
          </mxGeometry>
        </mxCell>
        <mxCell id="kF__j294HLQNLXvyXOyZ-39" style="edgeStyle=none;rounded=0;html=1;dashed=1;labelBackgroundColor=none;startArrow=none;startFill=0;startSize=5;endArrow=oval;endFill=0;endSize=5;jettySize=auto;orthogonalLoop=1;strokeWidth=1;fontFamily=Verdana;fontSize=12" edge="1" parent="kF__j294HLQNLXvyXOyZ-35">
          <mxGeometry relative="1" as="geometry">
            <mxPoint x="160" y="257.8780487804878" as="sourcePoint" />
          </mxGeometry>
        </mxCell>
        <mxCell id="kF__j294HLQNLXvyXOyZ-40" style="edgeStyle=none;rounded=0;html=1;dashed=1;labelBackgroundColor=none;startArrow=none;startFill=0;startSize=5;endArrow=oval;endFill=0;endSize=5;jettySize=auto;orthogonalLoop=1;strokeWidth=1;fontFamily=Verdana;fontSize=12" edge="1" parent="kF__j294HLQNLXvyXOyZ-35">
          <mxGeometry relative="1" as="geometry">
            <mxPoint x="85" y="281.81355932203394" as="targetPoint" />
          </mxGeometry>
        </mxCell>
        <mxCell id="kF__j294HLQNLXvyXOyZ-41" style="edgeStyle=none;rounded=0;html=1;dashed=1;labelBackgroundColor=none;startArrow=none;startFill=0;startSize=5;endArrow=oval;endFill=0;endSize=5;jettySize=auto;orthogonalLoop=1;strokeWidth=1;fontFamily=Verdana;fontSize=12" edge="1" parent="kF__j294HLQNLXvyXOyZ-35">
          <mxGeometry relative="1" as="geometry">
            <mxPoint x="154.74358974358984" y="415" as="sourcePoint" />
          </mxGeometry>
        </mxCell>
        <mxCell id="kF__j294HLQNLXvyXOyZ-42" style="edgeStyle=none;rounded=0;html=1;dashed=1;labelBackgroundColor=none;startArrow=none;startFill=0;startSize=5;endArrow=oval;endFill=0;endSize=5;jettySize=auto;orthogonalLoop=1;strokeWidth=1;fontFamily=Verdana;fontSize=12" edge="1" parent="kF__j294HLQNLXvyXOyZ-35">
          <mxGeometry relative="1" as="geometry">
            <mxPoint x="35" y="389.53846153846155" as="targetPoint" />
          </mxGeometry>
        </mxCell>
        <mxCell id="kF__j294HLQNLXvyXOyZ-16" value="EP00-03_0" style="rounded=1;whiteSpace=wrap;html=1;shadow=0;comic=0;labelBackgroundColor=none;strokeWidth=1;fontFamily=Verdana;fontSize=12;align=center;arcSize=50;" vertex="1" parent="kF__j294HLQNLXvyXOyZ-35">
          <mxGeometry x="64.17000000000002" y="350" width="100" height="30" as="geometry" />
        </mxCell>
        <mxCell id="kF__j294HLQNLXvyXOyZ-18" style="edgeStyle=none;rounded=0;html=1;labelBackgroundColor=none;startArrow=none;startFill=0;startSize=5;endArrow=classicThin;endFill=1;endSize=5;jettySize=auto;orthogonalLoop=1;strokeWidth=1;fontFamily=Verdana;fontSize=12" edge="1" parent="kF__j294HLQNLXvyXOyZ-35" source="kF__j294HLQNLXvyXOyZ-16">
          <mxGeometry relative="1" as="geometry">
            <mxPoint x="114.17000000000013" y="450" as="targetPoint" />
          </mxGeometry>
        </mxCell>
        <mxCell id="kF__j294HLQNLXvyXOyZ-22" style="edgeStyle=none;rounded=0;html=1;labelBackgroundColor=none;startArrow=none;startFill=0;startSize=5;endArrow=oval;endFill=0;endSize=5;jettySize=auto;orthogonalLoop=1;strokeWidth=1;fontFamily=Verdana;fontSize=12;dashed=1;entryX=0.25;entryY=1;entryDx=0;entryDy=0;exitX=0.966;exitY=0.262;exitDx=0;exitDy=0;exitPerimeter=0;" edge="1" parent="kF__j294HLQNLXvyXOyZ-35" target="kF__j294HLQNLXvyXOyZ-16">
          <mxGeometry relative="1" as="geometry">
            <mxPoint x="61.28000000000003" y="401.0039999999999" as="sourcePoint" />
            <mxPoint x="52.29000000000002" y="350" as="targetPoint" />
          </mxGeometry>
        </mxCell>
        <mxCell id="kF__j294HLQNLXvyXOyZ-27" style="edgeStyle=none;rounded=0;orthogonalLoop=1;jettySize=auto;html=1;entryX=0.75;entryY=1;entryDx=0;entryDy=0;dashed=1;startArrow=oval;startFill=0;" edge="1" parent="kF__j294HLQNLXvyXOyZ-35" target="kF__j294HLQNLXvyXOyZ-16">
          <mxGeometry relative="1" as="geometry">
            <mxPoint x="173.23000000000008" y="400" as="sourcePoint" />
          </mxGeometry>
        </mxCell>
        <mxCell id="kF__j294HLQNLXvyXOyZ-33" value="" style="ellipse;html=1;shape=endState;fillColor=#000000;strokeColor=#ff0000;" vertex="1" parent="kF__j294HLQNLXvyXOyZ-35">
          <mxGeometry x="99.17000000000002" y="446" width="30" height="30" as="geometry" />
        </mxCell>
        <mxCell id="kF__j294HLQNLXvyXOyZ-21" value="EP00-03" style="shape=note;whiteSpace=wrap;html=1;rounded=0;shadow=0;comic=0;labelBackgroundColor=none;strokeWidth=1;fontFamily=Verdana;fontSize=12;align=center;size=20;fillColor=#dae8fc;strokeColor=#6c8ebf;" vertex="1" parent="kF__j294HLQNLXvyXOyZ-35">
          <mxGeometry y="400" width="85" height="42" as="geometry" />
        </mxCell>
        <mxCell id="kF__j294HLQNLXvyXOyZ-28" value="出生点" style="shape=card;whiteSpace=wrap;html=1;size=20;fillColor=#d5e8d4;strokeColor=#82b366;" vertex="1" parent="kF__j294HLQNLXvyXOyZ-35">
          <mxGeometry x="160" y="400" width="70" height="40" as="geometry" />
        </mxCell>
        <mxCell id="kF__j294HLQNLXvyXOyZ-46" style="edgeStyle=orthogonalEdgeStyle;rounded=0;orthogonalLoop=1;jettySize=auto;html=1;entryX=1;entryY=0;entryDx=0;entryDy=0;" edge="1" parent="kF__j294HLQNLXvyXOyZ-35" source="kF__j294HLQNLXvyXOyZ-45" target="kF__j294HLQNLXvyXOyZ-16">
          <mxGeometry relative="1" as="geometry" />
        </mxCell>
        <mxCell id="kF__j294HLQNLXvyXOyZ-45" value="序言&lt;br&gt;回忆" style="shape=parallelogram;perimeter=parallelogramPerimeter;whiteSpace=wrap;html=1;fixedSize=1;" vertex="1" parent="kF__j294HLQNLXvyXOyZ-35">
          <mxGeometry x="129.16999999999996" y="290" width="120" height="40" as="geometry" />
        </mxCell>
        <mxCell id="kF__j294HLQNLXvyXOyZ-43" style="edgeStyle=orthogonalEdgeStyle;rounded=0;html=1;entryX=0.5;entryY=0;labelBackgroundColor=none;startArrow=none;startFill=0;startSize=5;endArrow=classicThin;endFill=1;endSize=5;jettySize=auto;orthogonalLoop=1;strokeWidth=1;fontFamily=Verdana;fontSize=12" edge="1" parent="kF__j294HLQNLXvyXOyZ-1" source="kF__j294HLQNLXvyXOyZ-3" target="kF__j294HLQNLXvyXOyZ-13">
          <mxGeometry relative="1" as="geometry">
            <Array as="points">
              <mxPoint x="390" y="145" />
            </Array>
          </mxGeometry>
        </mxCell>
        <mxCell id="kF__j294HLQNLXvyXOyZ-19" style="edgeStyle=none;rounded=0;html=1;labelBackgroundColor=none;startArrow=none;startFill=0;startSize=5;endArrow=classicThin;endFill=1;endSize=5;jettySize=auto;orthogonalLoop=1;strokeWidth=1;fontFamily=Verdana;fontSize=12;entryX=0.5;entryY=0;entryDx=0;entryDy=0;" edge="1" parent="kF__j294HLQNLXvyXOyZ-1" source="kF__j294HLQNLXvyXOyZ-14" target="kF__j294HLQNLXvyXOyZ-16">
          <mxGeometry relative="1" as="geometry">
            <mxPoint x="390.5675000000001" y="310" as="targetPoint" />
            <Array as="points">
              <mxPoint x="392" y="330" />
              <mxPoint x="431" y="330" />
              <mxPoint x="654" y="330" />
            </Array>
          </mxGeometry>
        </mxCell>
        <mxCell id="kF__j294HLQNLXvyXOyZ-44" value="&lt;font style=&quot;font-size: 30px&quot;&gt;EP_00&lt;/font&gt;" style="text;html=1;strokeColor=none;fillColor=none;align=center;verticalAlign=middle;whiteSpace=wrap;rounded=0;" vertex="1" parent="1">
          <mxGeometry x="40" y="-1150" width="210" height="50" as="geometry" />
        </mxCell>
      </root>
    </mxGraphModel>
  </diagram>
</mxfile>
